<svg width="98" height="17" viewBox="0 0 98 17" fill="none" xmlns="http://www.w3.org/2000/svg">
<path d="M0.341797 8.78955H96.1313" stroke="#D9CAA7" stroke-width="0.684211"/>
<path d="M49.1949 4.43083L49.1947 4.431L49.2035 4.44204C49.7084 5.07737 50.2775 5.7402 50.9102 6.43398L50.9212 6.44605L50.9333 6.45701C51.6271 7.08537 52.2898 7.65363 52.9248 8.16134L52.9307 8.16611L52.9369 8.17062C53.292 8.42941 53.6164 8.63094 53.9087 8.76888C53.9231 8.77568 53.9375 8.78236 53.9519 8.7889C53.9378 8.79527 53.9237 8.80177 53.9096 8.80839C53.617 8.94547 53.2924 9.14621 52.9369 9.40526L52.9307 9.40976L52.9248 9.41454C52.2844 9.92657 51.6176 10.5313 50.9212 11.2274L50.9205 11.2281C50.2856 11.8662 49.7117 12.5343 49.1991 13.2363C48.9428 13.5593 48.7415 13.8596 48.6028 14.1368C48.5952 14.152 48.5877 14.1673 48.5804 14.1825C48.573 14.1671 48.5654 14.1517 48.5577 14.1363C48.4186 13.8593 48.2164 13.5591 47.9585 13.2363C47.4482 12.5328 46.8415 11.8608 46.143 11.2268C45.5056 10.5293 44.8369 9.92302 44.133 9.4094C43.8098 9.15326 43.5093 8.95205 43.232 8.8135C43.2156 8.80533 43.1993 8.79734 43.183 8.78955C43.1994 8.78166 43.2159 8.77357 43.2324 8.7653C43.5096 8.62628 43.81 8.42425 44.133 8.1665C44.8351 7.65795 45.5076 7.08409 46.1434 6.4451C46.8403 5.7486 47.4415 5.08244 47.9534 4.44298L47.9581 4.43701L47.9626 4.43083C48.2216 4.07591 48.4232 3.75171 48.5613 3.45954C48.5675 3.44628 48.5737 3.43303 48.5797 3.41981C48.5856 3.43275 48.5916 3.44571 48.5977 3.45869C48.7349 3.75112 48.9357 4.07555 49.1949 4.43083Z" fill="white" stroke="#D9CAA7" stroke-width="0.684211"/>
<path d="M6.77405 4.43083L6.77381 4.431L6.78259 4.44204C7.28752 5.07737 7.85661 5.7402 8.48932 6.43398L8.50033 6.44605L8.51244 6.45701C9.2062 7.08537 9.86886 7.65363 10.5039 8.16134L10.5098 8.16611L10.516 8.17062C10.8711 8.42941 11.1955 8.63094 11.4878 8.76888C11.5022 8.77568 11.5166 8.78236 11.531 8.7889C11.5169 8.79527 11.5028 8.80177 11.4887 8.80839C11.1961 8.94547 10.8715 9.14621 10.516 9.40526L10.5098 9.40976L10.5039 9.41454C9.86345 9.92657 9.19675 10.5313 8.50026 11.2274L8.49957 11.2281C7.86475 11.8662 7.29079 12.5343 6.77818 13.2363C6.5219 13.5593 6.32056 13.8596 6.18192 14.1368C6.17428 14.152 6.16681 14.1673 6.1595 14.1825C6.1521 14.1671 6.14453 14.1517 6.13679 14.1363C5.99768 13.8593 5.79552 13.5591 5.53761 13.2363C5.02732 12.5328 4.42056 11.8608 3.72208 11.2268C3.08469 10.5293 2.41599 9.92302 1.71206 9.4094C1.38887 9.15326 1.08836 8.95205 0.811093 8.8135C0.794744 8.80533 0.778405 8.79734 0.76208 8.78955C0.778551 8.78166 0.795035 8.77357 0.811532 8.7653C1.08874 8.62628 1.38908 8.42425 1.71208 8.1665C2.41419 7.65795 3.08672 7.08409 3.72248 6.4451C4.41936 5.7486 5.02059 5.08244 5.53245 4.44298L5.53723 4.43701L5.54174 4.43083C5.80069 4.07591 6.00234 3.75171 6.14038 3.45954C6.14665 3.44628 6.1528 3.43303 6.15885 3.41981C6.16473 3.43275 6.17071 3.44571 6.1768 3.45869C6.31397 3.75112 6.51484 4.07555 6.77405 4.43083Z" fill="white" stroke="#D9CAA7" stroke-width="0.684211"/>
<path d="M90.1379 2.70891C89.4674 1.78998 89.137 1.08164 89.137 0.579102H88.7635C88.7635 1.08164 88.4283 1.78998 87.7578 2.70891C87.0874 3.54647 86.2972 4.42233 85.3777 5.34125C84.5445 6.17882 83.6633 6.93024 82.7438 7.5955C81.9058 8.26555 81.2401 8.60058 80.7373 8.60058V8.97868C81.2401 8.97868 81.9058 9.3137 82.7438 9.97897C83.6633 10.649 84.5397 11.4435 85.3777 12.3624C86.2972 13.1952 87.0922 14.0759 87.7578 14.9948C88.4283 15.8324 88.7635 16.4976 88.7635 17.0002H89.137C89.137 16.4976 89.4722 15.8324 90.1379 14.9948C90.8083 14.0759 91.5602 13.2 92.3934 12.3624C93.3129 11.4435 94.1893 10.649 95.0273 9.97897C95.9468 9.30892 96.6555 8.97868 97.1584 8.97868V8.60058C96.6555 8.60058 95.9468 8.26555 95.0273 7.5955C94.1893 6.92545 93.3129 6.17403 92.3934 5.34125C91.5554 4.42233 90.8035 3.54647 90.1379 2.70891Z" fill="#FF833D"/>
</svg>
