<svg width="142" height="24" viewBox="0 0 142 24" fill="none" xmlns="http://www.w3.org/2000/svg">
<path d="M0.5 12H140.5" stroke="#D9CAA7"/>
<path d="M72.7393 3.11279C71.7594 1.76974 71.2765 0.73448 71.2765 0H70.7305C70.7305 0.73448 70.2406 1.76974 69.2607 3.11279C68.2809 4.33693 67.126 5.61702 65.7822 6.96007C64.5643 8.1842 63.2765 9.28243 61.9326 10.2547C60.7078 11.234 59.7349 11.7237 59 11.7237V12.2763C59.7349 12.2763 60.7078 12.766 61.9326 13.7383C63.2765 14.7176 64.5573 15.8788 65.7822 17.2218C67.126 18.4389 68.2879 19.726 69.2607 21.0691C70.2406 22.2932 70.7305 23.2655 70.7305 24H71.2765C71.2765 23.2655 71.7664 22.2932 72.7393 21.0691C73.7192 19.726 74.8181 18.4459 76.0359 17.2218C77.3797 15.8788 78.6606 14.7176 79.8854 13.7383C81.2293 12.759 82.2651 12.2763 83 12.2763V11.7237C82.2651 11.7237 81.2293 11.234 79.8854 10.2547C78.6606 9.27543 77.3797 8.17721 76.0359 6.96007C74.8111 5.61702 73.7122 4.33693 72.7393 3.11279Z" fill="#FF833D"/>
<path d="M133.901 5.62929L133.907 5.63762L133.913 5.64569C134.651 6.57425 135.483 7.54299 136.407 8.55697L136.424 8.57461L136.441 8.59064C137.455 9.50902 138.424 10.3395 139.352 11.0816L139.361 11.0886L139.37 11.0951C139.889 11.4734 140.363 11.7679 140.79 11.9695C140.811 11.9795 140.832 11.9892 140.853 11.9988C140.832 12.0081 140.812 12.0176 140.791 12.0273C140.364 12.2276 139.889 12.521 139.37 12.8996L139.361 12.9062L139.352 12.9132C138.416 13.6615 137.441 14.5453 136.423 15.5627L136.422 15.5637C135.495 16.4963 134.656 17.4729 133.907 18.4988C133.532 18.9709 133.238 19.4099 133.035 19.8149C133.024 19.8372 133.013 19.8595 133.002 19.8818C132.992 19.8593 132.98 19.8368 132.969 19.8143C132.766 19.4093 132.47 18.9706 132.093 18.4988C131.348 17.4707 130.461 16.4885 129.44 15.5618C128.508 14.5425 127.531 13.6563 126.502 12.9057C126.03 12.5313 125.591 12.2372 125.185 12.0347C125.162 12.0228 125.138 12.0111 125.114 11.9997C125.138 11.9882 125.162 11.9764 125.186 11.9643C125.591 11.7611 126.03 11.4658 126.502 11.0891C127.528 10.3459 128.511 9.50714 129.441 8.57321C130.459 7.55527 131.338 6.58165 132.086 5.64705L132.093 5.63832L132.099 5.62929C132.478 5.11056 132.773 4.63674 132.974 4.20972C132.984 4.19033 132.993 4.17098 133.001 4.15165C133.01 4.17056 133.019 4.18951 133.028 4.20848C133.228 4.63587 133.522 5.11004 133.901 5.62929Z" fill="white" stroke="#D9CAA7"/>
<path d="M9.90053 5.62929L9.90661 5.63762L9.91302 5.64569C10.651 6.57425 11.4827 7.54299 12.4075 8.55697L12.4236 8.57461L12.4413 8.59064C13.4552 9.50902 14.4237 10.3395 15.3518 11.0816L15.3605 11.0886L15.3696 11.0951C15.8886 11.4734 16.3627 11.7679 16.7899 11.9695C16.8109 11.9795 16.832 11.9892 16.853 11.9988C16.8324 12.0081 16.8118 12.0176 16.7911 12.0273C16.3635 12.2276 15.8891 12.521 15.3696 12.8996L15.3605 12.9062L15.3518 12.9132C14.4158 13.6615 13.4414 14.5453 12.4235 15.5627L12.4224 15.5637C11.4946 16.4963 10.6558 17.4729 9.90657 18.4988C9.532 18.9709 9.23774 19.4099 9.03511 19.8149C9.02395 19.8372 9.01303 19.8595 9.00234 19.8818C8.99152 19.8593 8.98046 19.8368 8.96915 19.8143C8.76584 19.4093 8.47037 18.9706 8.09343 18.4988C7.34762 17.4707 6.46082 16.4885 5.43996 15.5618C4.50839 14.5425 3.53107 13.6563 2.50225 12.9057C2.02988 12.5313 1.59068 12.2372 1.18544 12.0347C1.16155 12.0228 1.13767 12.0111 1.11381 11.9997C1.13788 11.9882 1.16197 11.9764 1.18608 11.9643C1.59123 11.7611 2.03019 11.4658 2.50227 11.0891C3.52843 10.3459 4.51137 9.50714 5.44055 8.57321C6.45906 7.55527 7.33778 6.58165 8.08589 5.64705L8.09288 5.63832L8.09947 5.62929C8.47793 5.11056 8.77266 4.63674 8.9744 4.20972C8.98356 4.19033 8.99256 4.17098 9.00139 4.15165C9.00998 4.17056 9.01873 4.18951 9.02763 4.20848C9.22811 4.63587 9.52169 5.11004 9.90053 5.62929Z" fill="white" stroke="#D9CAA7"/>
</svg>
