<svg width="98" height="18" viewBox="0 0 98 18" fill="none" xmlns="http://www.w3.org/2000/svg">
<path d="M0.341797 9H96.1313" stroke="#D9CAA7" stroke-width="0.684211"/>
<path d="M49.7687 2.91936C49.0983 2.00043 48.7678 1.29209 48.7678 0.789551H48.3943C48.3943 1.29209 48.0591 2.00043 47.3887 2.91936C46.7182 3.75692 45.9281 4.63277 45.0086 5.5517C44.1753 6.38927 43.2942 7.14069 42.3747 7.80595C41.5367 8.476 40.871 8.81103 40.3682 8.81103V9.18913C40.871 9.18913 41.5367 9.52415 42.3747 10.1894C43.2942 10.8595 44.1705 11.654 45.0086 12.5729C45.9281 13.4057 46.723 14.2863 47.3887 15.2052C48.0591 16.0428 48.3943 16.7081 48.3943 17.2106H48.7678C48.7678 16.7081 49.1031 16.0428 49.7687 15.2052C50.4392 14.2863 51.191 13.4105 52.0243 12.5729C52.9438 11.654 53.8201 10.8595 54.6582 10.1894C55.5777 9.51937 56.2864 9.18913 56.7892 9.18913V8.81103C56.2864 8.81103 55.5777 8.476 54.6582 7.80595C53.8201 7.1359 52.9438 6.38448 52.0243 5.5517C51.1863 4.63277 50.4344 3.75692 49.7687 2.91936Z" fill="#FF833D"/>
<path d="M91.6158 4.64128L91.6156 4.64145L91.6244 4.65249C92.1293 5.28782 92.6984 5.95065 93.3311 6.64442L93.3421 6.6565L93.3542 6.66746C94.048 7.29582 94.7107 7.86408 95.3457 8.37179L95.3516 8.37656L95.3578 8.38107C95.7129 8.63986 96.0373 8.84138 96.3296 8.97933C96.344 8.98613 96.3584 8.99281 96.3728 8.99935C96.3587 9.00572 96.3446 9.01222 96.3305 9.01884C96.0379 9.15592 95.7133 9.35665 95.3578 9.61571L95.3516 9.62021L95.3457 9.62499C94.7052 10.137 94.0385 10.7417 93.3421 11.4378L93.3414 11.4385C92.7065 12.0766 92.1326 12.7448 91.62 13.4468C91.3637 13.7698 91.1624 14.0701 91.0237 14.3472C91.0161 14.3625 91.0086 14.3777 91.0013 14.393C90.9939 14.3776 90.9863 14.3622 90.9786 14.3468C90.8395 14.0697 90.6373 13.7695 90.3794 13.4467C89.8691 12.7433 89.2624 12.0712 88.5639 11.4372C87.9265 10.7398 87.2578 10.1335 86.5539 9.61985C86.2307 9.36371 85.9302 9.1625 85.6529 9.02395C85.6365 9.01578 85.6202 9.00779 85.6039 9C85.6203 8.9921 85.6368 8.98402 85.6533 8.97575C85.9305 8.83673 86.2309 8.6347 86.5539 8.37695C87.256 7.8684 87.9285 7.29454 88.5643 6.65554C89.2612 5.95905 89.8624 5.29289 90.3743 4.65343L90.379 4.64745L90.3835 4.64128C90.6425 4.28636 90.8441 3.96216 90.9822 3.66999C90.9884 3.65672 90.9946 3.64348 91.0006 3.63025C91.0065 3.6432 91.0125 3.65616 91.0186 3.66914C91.1558 3.96156 91.3566 4.286 91.6158 4.64128Z" fill="white" stroke="#D9CAA7" stroke-width="0.684211"/>
<path d="M6.77405 4.64128L6.77381 4.64145L6.78259 4.65249C7.28752 5.28782 7.85661 5.95065 8.48932 6.64442L8.50033 6.6565L8.51244 6.66746C9.2062 7.29582 9.86886 7.86408 10.5039 8.37179L10.5098 8.37656L10.516 8.38107C10.8711 8.63986 11.1955 8.84138 11.4878 8.97933C11.5022 8.98613 11.5166 8.99281 11.531 8.99935C11.5169 9.00572 11.5028 9.01222 11.4887 9.01884C11.1961 9.15592 10.8715 9.35665 10.516 9.61571L10.5098 9.62021L10.5039 9.62499C9.86345 10.137 9.19675 10.7417 8.50026 11.4378L8.49957 11.4385C7.86475 12.0766 7.29079 12.7448 6.77818 13.4468C6.5219 13.7698 6.32056 14.0701 6.18192 14.3472C6.17428 14.3625 6.16681 14.3777 6.1595 14.393C6.1521 14.3776 6.14453 14.3622 6.13679 14.3468C5.99768 14.0697 5.79552 13.7695 5.53761 13.4467C5.02732 12.7433 4.42056 12.0712 3.72208 11.4372C3.08469 10.7398 2.41599 10.1335 1.71206 9.61985C1.38887 9.36371 1.08836 9.1625 0.811093 9.02395C0.794744 9.01578 0.778405 9.00779 0.76208 9C0.778551 8.9921 0.795035 8.98402 0.811532 8.97575C1.08874 8.83673 1.38908 8.6347 1.71208 8.37695C2.41419 7.8684 3.08672 7.29454 3.72248 6.65554C4.41936 5.95905 5.02059 5.29289 5.53245 4.65343L5.53723 4.64745L5.54174 4.64128C5.80069 4.28636 6.00234 3.96216 6.14038 3.66999C6.14665 3.65672 6.1528 3.64348 6.15885 3.63025C6.16473 3.6432 6.17071 3.65616 6.1768 3.66914C6.31397 3.96156 6.51484 4.286 6.77405 4.64128Z" fill="white" stroke="#D9CAA7" stroke-width="0.684211"/>
</svg>
