<svg width="98" height="17" viewBox="0 0 98 17" fill="none" xmlns="http://www.w3.org/2000/svg">
<path d="M0.341797 8.21045H96.1313" stroke="#D9CAA7" stroke-width="0.684211"/>
<path d="M9.40057 2.12981C8.73013 1.21088 8.39968 0.502539 8.39968 0H8.02616C8.02616 0.502539 7.69095 1.21088 7.02051 2.12981C6.35007 2.96737 5.55989 3.84322 4.64042 4.76215C3.80716 5.59972 2.92601 6.35114 2.00654 7.0164C1.16849 7.68645 0.502832 8.02148 0 8.02148V8.39958C0.502832 8.39958 1.16849 8.7346 2.00654 9.39987C2.92601 10.0699 3.80237 10.8644 4.64042 11.7833C5.55989 12.6161 6.35486 13.4968 7.02051 14.4157C7.69095 15.2533 8.02616 15.9185 8.02616 16.4211H8.39968C8.39968 15.9185 8.73492 15.2533 9.40057 14.4157C10.071 13.4968 10.8229 12.6209 11.6561 11.7833C12.5756 10.8644 13.452 10.0699 14.29 9.39987C15.2095 8.72982 15.9182 8.39958 16.4211 8.39958V8.02148C15.9182 8.02148 15.2095 7.68645 14.29 7.0164C13.452 6.34635 12.5756 5.59493 11.6561 4.76215C10.8181 3.84322 10.0662 2.96737 9.40057 2.12981Z" fill="#FF833D"/>
<path d="M51.2477 3.85172L51.2474 3.8519L51.2562 3.86294C51.7612 4.49827 52.3302 5.1611 52.963 5.85487L52.974 5.86694L52.9861 5.87791C53.6798 6.50627 54.3425 7.07453 54.9775 7.58224L54.9835 7.58701L54.9897 7.59151C55.3448 7.85031 55.6691 8.05183 55.9614 8.18978C55.9759 8.19658 55.9903 8.20325 56.0046 8.2098C55.9905 8.21617 55.9764 8.22267 55.9623 8.22929C55.6697 8.36636 55.3451 8.5671 54.9897 8.82616L54.9835 8.83066L54.9775 8.83544C54.3371 9.34747 53.6704 9.95218 52.9739 10.6483L52.9732 10.649C52.3384 11.2871 51.7644 11.9552 51.2518 12.6572C50.9955 12.9802 50.7942 13.2805 50.6556 13.5577C50.6479 13.5729 50.6404 13.5882 50.6331 13.6034C50.6257 13.588 50.6182 13.5726 50.6104 13.5572C50.4713 13.2802 50.2691 12.98 50.0112 12.6572C49.501 11.9537 48.8942 11.2817 48.1957 10.6477C47.5583 9.95021 46.8896 9.34392 46.1857 8.8303C45.8625 8.57416 45.562 8.37295 45.2847 8.2344C45.2684 8.22623 45.252 8.21824 45.2357 8.21044C45.2522 8.20255 45.2687 8.19447 45.2852 8.1862C45.5624 8.04718 45.8627 7.84515 46.1857 7.58739C46.8878 7.07885 47.5604 6.50499 48.1961 5.86599C48.893 5.1695 49.4942 4.50334 50.0061 3.86388L50.0109 3.8579L50.0154 3.85172C50.2743 3.4968 50.476 3.17261 50.614 2.88044C50.6203 2.86717 50.6264 2.85393 50.6325 2.8407C50.6384 2.85364 50.6443 2.86661 50.6504 2.87959C50.7876 3.17201 50.9885 3.49645 51.2477 3.85172Z" fill="white" stroke="#D9CAA7" stroke-width="0.684211"/>
<path d="M91.6158 3.85172L91.6156 3.8519L91.6244 3.86294C92.1293 4.49827 92.6984 5.1611 93.3311 5.85487L93.3421 5.86694L93.3542 5.87791C94.048 6.50627 94.7107 7.07453 95.3457 7.58224L95.3516 7.58701L95.3578 7.59151C95.7129 7.85031 96.0373 8.05183 96.3296 8.18978C96.344 8.19658 96.3584 8.20325 96.3728 8.2098C96.3587 8.21617 96.3446 8.22267 96.3305 8.22929C96.0379 8.36636 95.7133 8.5671 95.3578 8.82616L95.3516 8.83066L95.3457 8.83544C94.7052 9.34747 94.0385 9.95218 93.3421 10.6483L93.3414 10.649C92.7065 11.2871 92.1326 11.9552 91.62 12.6572C91.3637 12.9802 91.1624 13.2805 91.0237 13.5577C91.0161 13.5729 91.0086 13.5882 91.0013 13.6034C90.9939 13.588 90.9863 13.5726 90.9786 13.5572C90.8395 13.2802 90.6373 12.98 90.3794 12.6572C89.8691 11.9537 89.2624 11.2817 88.5639 10.6477C87.9265 9.95021 87.2578 9.34392 86.5539 8.8303C86.2307 8.57416 85.9302 8.37295 85.6529 8.2344C85.6365 8.22623 85.6202 8.21824 85.6039 8.21044C85.6203 8.20255 85.6368 8.19447 85.6533 8.1862C85.9305 8.04718 86.2309 7.84515 86.5539 7.58739C87.256 7.07885 87.9285 6.50499 88.5643 5.86599C89.2612 5.1695 89.8624 4.50334 90.3743 3.86388L90.379 3.8579L90.3835 3.85172C90.6425 3.4968 90.8441 3.17261 90.9822 2.88044C90.9884 2.86717 90.9946 2.85393 91.0006 2.8407C91.0065 2.85364 91.0125 2.86661 91.0186 2.87959C91.1558 3.17201 91.3566 3.49645 91.6158 3.85172Z" fill="white" stroke="#D9CAA7" stroke-width="0.684211"/>
</svg>
