<svg width="18" height="18" viewBox="0 0 18 18" fill="none" xmlns="http://www.w3.org/2000/svg">
<path d="M9.90053 2.62929L9.90661 2.63762L9.91302 2.64569C10.651 3.57425 11.4827 4.54299 12.4075 5.55697L12.4236 5.57461L12.4413 5.59064C13.4552 6.50902 14.4237 7.33954 15.3518 8.08158L15.3605 8.08856L15.3696 8.09514C15.8886 8.47337 16.3627 8.76791 16.7899 8.96952C16.8109 8.97947 16.832 8.98922 16.853 8.99878C16.8324 9.00809 16.8118 9.01759 16.7911 9.02727C16.3635 9.22761 15.8891 9.521 15.3696 9.89962L15.3605 9.9062L15.3518 9.91318C14.4158 10.6615 13.4414 11.5453 12.4235 12.5627L12.4224 12.5637C11.4946 13.4963 10.6558 14.4729 9.90657 15.4988C9.532 15.9709 9.23774 16.4099 9.03511 16.8149C9.02395 16.8372 9.01303 16.8595 9.00234 16.8818C8.99152 16.8593 8.98046 16.8368 8.96915 16.8143C8.76584 16.4093 8.47037 15.9706 8.09343 15.4988C7.34762 14.4707 6.46082 13.4885 5.43996 12.5618C4.50839 11.5425 3.53107 10.6563 2.50225 9.90567C2.02988 9.53131 1.59068 9.23723 1.18544 9.03474C1.16155 9.0228 1.13767 9.01113 1.11381 8.99973C1.13788 8.9882 1.16197 8.97638 1.18608 8.96429C1.59123 8.76111 2.03019 8.46583 2.50227 8.08912C3.52843 7.34585 4.51137 6.50714 5.44055 5.57321C6.45906 4.55527 7.33778 3.58165 8.08589 2.64705L8.09288 2.63832L8.09947 2.62929C8.47793 2.11056 8.77266 1.63674 8.9744 1.20972C8.98356 1.19033 8.99256 1.17098 9.00139 1.15165C9.00998 1.17056 9.01873 1.18951 9.02763 1.20848C9.22811 1.63587 9.52169 2.11004 9.90053 2.62929Z" fill="white" stroke="#D9CAA7"/>
</svg>
