<svg width="24" height="24" viewBox="0 0 24 24" fill="none" xmlns="http://www.w3.org/2000/svg">
<path d="M13.7393 3.11279C12.7594 1.76974 12.2765 0.73448 12.2765 0H11.7305C11.7305 0.73448 11.2406 1.76974 10.2607 3.11279C9.28087 4.33693 8.12599 5.61702 6.78216 6.96007C5.56431 8.1842 4.27647 9.28243 2.93264 10.2547C1.70779 11.234 0.734909 11.7237 0 11.7237V12.2763C0.734909 12.2763 1.70779 12.766 2.93264 13.7383C4.27647 14.7176 5.55731 15.8788 6.78216 17.2218C8.12599 18.4389 9.28787 19.726 10.2607 21.0691C11.2406 22.2932 11.7305 23.2655 11.7305 24H12.2765C12.2765 23.2655 12.7664 22.2932 13.7393 21.0691C14.7192 19.726 15.8181 18.4459 17.0359 17.2218C18.3797 15.8788 19.6606 14.7176 20.8854 13.7383C22.2293 12.759 23.2651 12.2763 24 12.2763V11.7237C23.2651 11.7237 22.2293 11.234 20.8854 10.2547C19.6606 9.27543 18.3797 8.17721 17.0359 6.96007C15.8111 5.61702 14.7122 4.33693 13.7393 3.11279Z" fill="#FF833D"/>
</svg>
