<svg width="142" height="24" viewBox="0 0 142 24" fill="none" xmlns="http://www.w3.org/2000/svg">
<path d="M0.5 12H140.5" stroke="#D9CAA7"/>
<path d="M71.9005 5.62929L71.9066 5.63762L71.913 5.64569C72.651 6.57425 73.4827 7.54299 74.4075 8.55697L74.4236 8.57461L74.4413 8.59064C75.4552 9.50902 76.4237 10.3395 77.3518 11.0816L77.3605 11.0886L77.3696 11.0951C77.8886 11.4734 78.3627 11.7679 78.7899 11.9695C78.8109 11.9795 78.832 11.9892 78.853 11.9988C78.8324 12.0081 78.8118 12.0176 78.7911 12.0273C78.3635 12.2276 77.8891 12.521 77.3696 12.8996L77.3605 12.9062L77.3518 12.9132C76.4158 13.6615 75.4414 14.5453 74.4235 15.5627L74.4224 15.5637C73.4946 16.4963 72.6558 17.4729 71.9066 18.4988C71.532 18.9709 71.2377 19.4099 71.0351 19.8149C71.024 19.8372 71.013 19.8595 71.0023 19.8818C70.9915 19.8593 70.9805 19.8368 70.9692 19.8143C70.7658 19.4093 70.4704 18.9706 70.0934 18.4988C69.3476 17.4707 68.4608 16.4885 67.44 15.5618C66.5084 14.5425 65.5311 13.6563 64.5022 12.9057C64.0299 12.5313 63.5907 12.2372 63.1854 12.0347C63.1615 12.0228 63.1377 12.0111 63.1138 11.9997C63.1379 11.9882 63.162 11.9764 63.1861 11.9643C63.5912 11.7611 64.0302 11.4658 64.5023 11.0891C65.5284 10.3459 66.5114 9.50714 67.4406 8.57321C68.4591 7.55527 69.3378 6.58165 70.0859 5.64705L70.0929 5.63832L70.0995 5.62929C70.4779 5.11056 70.7727 4.63674 70.9744 4.20972C70.9836 4.19033 70.9926 4.17098 71.0014 4.15165C71.01 4.17056 71.0187 4.18951 71.0276 4.20848C71.2281 4.63587 71.5217 5.11004 71.9005 5.62929Z" fill="white" stroke="#D9CAA7"/>
<path d="M9.90053 5.62929L9.90661 5.63762L9.91302 5.64569C10.651 6.57425 11.4827 7.54299 12.4075 8.55697L12.4236 8.57461L12.4413 8.59064C13.4552 9.50902 14.4237 10.3395 15.3518 11.0816L15.3605 11.0886L15.3696 11.0951C15.8886 11.4734 16.3627 11.7679 16.7899 11.9695C16.8109 11.9795 16.832 11.9892 16.853 11.9988C16.8324 12.0081 16.8118 12.0176 16.7911 12.0273C16.3635 12.2276 15.8891 12.521 15.3696 12.8996L15.3605 12.9062L15.3518 12.9132C14.4158 13.6615 13.4414 14.5453 12.4235 15.5627L12.4224 15.5637C11.4946 16.4963 10.6558 17.4729 9.90657 18.4988C9.532 18.9709 9.23774 19.4099 9.03511 19.8149C9.02395 19.8372 9.01303 19.8595 9.00234 19.8818C8.99152 19.8593 8.98046 19.8368 8.96915 19.8143C8.76584 19.4093 8.47037 18.9706 8.09343 18.4988C7.34762 17.4707 6.46082 16.4885 5.43996 15.5618C4.50839 14.5425 3.53107 13.6563 2.50225 12.9057C2.02988 12.5313 1.59068 12.2372 1.18544 12.0347C1.16155 12.0228 1.13767 12.0111 1.11381 11.9997C1.13788 11.9882 1.16197 11.9764 1.18608 11.9643C1.59123 11.7611 2.03019 11.4658 2.50227 11.0891C3.52843 10.3459 4.51137 9.50714 5.44055 8.57321C6.45906 7.55527 7.33778 6.58165 8.08589 5.64705L8.09288 5.63832L8.09947 5.62929C8.47793 5.11056 8.77266 4.63674 8.9744 4.20972C8.98356 4.19033 8.99256 4.17098 9.00139 4.15165C9.00998 4.17056 9.01873 4.18951 9.02763 4.20848C9.22811 4.63587 9.52169 5.11004 9.90053 5.62929Z" fill="white" stroke="#D9CAA7"/>
<path d="M131.739 3.11279C130.759 1.76974 130.276 0.73448 130.276 0H129.731C129.731 0.73448 129.241 1.76974 128.261 3.11279C127.281 4.33693 126.126 5.61702 124.782 6.96007C123.564 8.1842 122.276 9.28243 120.933 10.2547C119.708 11.234 118.735 11.7237 118 11.7237V12.2763C118.735 12.2763 119.708 12.766 120.933 13.7383C122.276 14.7176 123.557 15.8788 124.782 17.2218C126.126 18.4389 127.288 19.726 128.261 21.0691C129.241 22.2932 129.731 23.2655 129.731 24H130.276C130.276 23.2655 130.766 22.2932 131.739 21.0691C132.719 19.726 133.818 18.4459 135.036 17.2218C136.38 15.8788 137.661 14.7176 138.885 13.7383C140.229 12.759 141.265 12.2763 142 12.2763V11.7237C141.265 11.7237 140.229 11.234 138.885 10.2547C137.661 9.27543 136.38 8.17721 135.036 6.96007C133.811 5.61702 132.712 4.33693 131.739 3.11279Z" fill="#FF833D"/>
</svg>
