<svg width="142" height="24" viewBox="0 0 142 24" fill="none" xmlns="http://www.w3.org/2000/svg">
<path d="M0.5 12H140.5" stroke="#D9CAA7"/>
<path d="M13.7393 3.11279C12.7594 1.76974 12.2765 0.73448 12.2765 0H11.7305C11.7305 0.73448 11.2406 1.76974 10.2607 3.11279C9.28087 4.33693 8.12599 5.61702 6.78216 6.96007C5.56431 8.1842 4.27647 9.28243 2.93264 10.2547C1.70779 11.234 0.734909 11.7237 0 11.7237V12.2763C0.734909 12.2763 1.70779 12.766 2.93264 13.7383C4.27647 14.7176 5.55731 15.8788 6.78216 17.2218C8.12599 18.4389 9.28787 19.726 10.2607 21.0691C11.2406 22.2932 11.7305 23.2655 11.7305 24H12.2765C12.2765 23.2655 12.7664 22.2932 13.7393 21.0691C14.7192 19.726 15.8181 18.4459 17.0359 17.2218C18.3797 15.8788 19.6606 14.7176 20.8854 13.7383C22.2293 12.759 23.2651 12.2763 24 12.2763V11.7237C23.2651 11.7237 22.2293 11.234 20.8854 10.2547C19.6606 9.27543 18.3797 8.17721 17.0359 6.96007C15.8111 5.61702 14.7122 4.33693 13.7393 3.11279Z" fill="#FF833D"/>
<path d="M74.9005 5.62929L74.9066 5.63762L74.913 5.64569C75.651 6.57425 76.4827 7.54299 77.4075 8.55697L77.4236 8.57461L77.4413 8.59064C78.4552 9.50902 79.4237 10.3395 80.3518 11.0816L80.3605 11.0886L80.3696 11.0951C80.8886 11.4734 81.3627 11.7679 81.7899 11.9695C81.8109 11.9795 81.832 11.9892 81.853 11.9988C81.8324 12.0081 81.8118 12.0176 81.7911 12.0273C81.3635 12.2276 80.8891 12.521 80.3696 12.8996L80.3605 12.9062L80.3518 12.9132C79.4158 13.6615 78.4414 14.5453 77.4235 15.5627L77.4224 15.5637C76.4946 16.4963 75.6558 17.4729 74.9066 18.4988C74.532 18.9709 74.2377 19.4099 74.0351 19.8149C74.024 19.8372 74.013 19.8595 74.0023 19.8818C73.9915 19.8593 73.9805 19.8368 73.9692 19.8143C73.7658 19.4093 73.4704 18.9706 73.0934 18.4988C72.3476 17.4707 71.4608 16.4885 70.44 15.5618C69.5084 14.5425 68.5311 13.6563 67.5022 12.9057C67.0299 12.5313 66.5907 12.2372 66.1854 12.0347C66.1615 12.0228 66.1377 12.0111 66.1138 11.9997C66.1379 11.9882 66.162 11.9764 66.1861 11.9643C66.5912 11.7611 67.0302 11.4658 67.5023 11.0891C68.5284 10.3459 69.5114 9.50714 70.4406 8.57321C71.4591 7.55527 72.3378 6.58165 73.0859 5.64705L73.0929 5.63832L73.0995 5.62929C73.4779 5.11056 73.7727 4.63674 73.9744 4.20972C73.9836 4.19033 73.9926 4.17098 74.0014 4.15165C74.01 4.17056 74.0187 4.18951 74.0276 4.20848C74.2281 4.63587 74.5217 5.11004 74.9005 5.62929Z" fill="white" stroke="#D9CAA7"/>
<path d="M133.901 5.62929L133.907 5.63762L133.913 5.64569C134.651 6.57425 135.483 7.54299 136.407 8.55697L136.424 8.57461L136.441 8.59064C137.455 9.50902 138.424 10.3395 139.352 11.0816L139.361 11.0886L139.37 11.0951C139.889 11.4734 140.363 11.7679 140.79 11.9695C140.811 11.9795 140.832 11.9892 140.853 11.9988C140.832 12.0081 140.812 12.0176 140.791 12.0273C140.364 12.2276 139.889 12.521 139.37 12.8996L139.361 12.9062L139.352 12.9132C138.416 13.6615 137.441 14.5453 136.423 15.5627L136.422 15.5637C135.495 16.4963 134.656 17.4729 133.907 18.4988C133.532 18.9709 133.238 19.4099 133.035 19.8149C133.024 19.8372 133.013 19.8595 133.002 19.8818C132.992 19.8593 132.98 19.8368 132.969 19.8143C132.766 19.4093 132.47 18.9706 132.093 18.4988C131.348 17.4707 130.461 16.4885 129.44 15.5618C128.508 14.5425 127.531 13.6563 126.502 12.9057C126.03 12.5313 125.591 12.2372 125.185 12.0347C125.162 12.0228 125.138 12.0111 125.114 11.9997C125.138 11.9882 125.162 11.9764 125.186 11.9643C125.591 11.7611 126.03 11.4658 126.502 11.0891C127.528 10.3459 128.511 9.50714 129.441 8.57321C130.459 7.55527 131.338 6.58165 132.086 5.64705L132.093 5.63832L132.099 5.62929C132.478 5.11056 132.773 4.63674 132.974 4.20972C132.984 4.19033 132.993 4.17098 133.001 4.15165C133.01 4.17056 133.019 4.18951 133.028 4.20848C133.228 4.63587 133.522 5.11004 133.901 5.62929Z" fill="white" stroke="#D9CAA7"/>
</svg>
